<svg width="22" height="20" viewBox="0 0 22 20" fill="none" xmlns="http://www.w3.org/2000/svg">
<path opacity="0.9" d="M11.2474 6.66525C9.31931 6.66525 7.74588 8.16376 7.74588 10C7.74588 11.8362 9.31931 13.3348 11.2474 13.3348C13.1754 13.3348 14.7489 11.8362 14.7489 10C14.7489 8.16376 13.1754 6.66525 11.2474 6.66525ZM21.7492 10C21.7492 8.61907 21.7623 7.25064 21.6809 5.87221C21.5995 4.27113 21.216 2.85017 19.9866 1.67938C18.7547 0.506085 17.2653 0.14334 15.5842 0.065788C14.1342 -0.0117644 12.6973 0.000744113 11.25 0.000744113C9.80001 0.000744113 8.36317 -0.0117644 6.91582 0.065788C5.23468 0.14334 3.74268 0.508587 2.51335 1.67938C1.28139 2.85267 0.900507 4.27113 0.819077 5.87221C0.737647 7.25314 0.750781 8.62157 0.750781 10C0.750781 11.3784 0.737647 12.7494 0.819077 14.1278C0.900507 15.7289 1.28402 17.1498 2.51335 18.3206C3.7453 19.4939 5.23468 19.8567 6.91582 19.9342C8.3658 20.0118 9.80264 19.9993 11.25 19.9993C12.7 19.9993 14.1368 20.0118 15.5842 19.9342C17.2653 19.8567 18.7573 19.4914 19.9866 18.3206C21.2186 17.1473 21.5995 15.7289 21.6809 14.1278C21.765 12.7494 21.7492 11.3809 21.7492 10ZM11.2474 15.131C8.26598 15.131 5.85985 12.8394 5.85985 10C5.85985 7.16058 8.26598 4.86903 11.2474 4.86903C14.2288 4.86903 16.6349 7.16058 16.6349 10C16.6349 12.8394 14.2288 15.131 11.2474 15.131ZM16.8555 5.8572C16.1594 5.8572 15.5973 5.32184 15.5973 4.65889C15.5973 3.99594 16.1594 3.46058 16.8555 3.46058C17.5516 3.46058 18.1137 3.99594 18.1137 4.65889C18.114 4.81631 18.0816 4.97222 18.0184 5.1177C17.9552 5.26317 17.8626 5.39535 17.7457 5.50666C17.6288 5.61798 17.49 5.70624 17.3373 5.76639C17.1845 5.82654 17.0208 5.8574 16.8555 5.8572Z" fill="#999999"/>
</svg>
